<mxfile host="app.diagrams.net" modified="2021-11-10T03:24:08.061Z" agent="5.0 (Windows NT 10.0; Win64; x64) AppleWebKit/537.36 (KHTML, like Gecko) Chrome/95.0.4638.69 Safari/537.36" etag="CmugonVI8dJzpa57M3P0" version="15.7.1" type="github">
  <diagram id="R2lEEEUBdFMjLlhIrx00" name="Page-1">
    <mxGraphModel dx="2272" dy="759" grid="1" gridSize="10" guides="1" tooltips="1" connect="1" arrows="1" fold="1" page="1" pageScale="1" pageWidth="850" pageHeight="1100" math="0" shadow="0" extFonts="Permanent Marker^https://fonts.googleapis.com/css?family=Permanent+Marker">
      <root>
        <mxCell id="0" />
        <mxCell id="1" parent="0" />
        <mxCell id="C-vyLk0tnHw3VtMMgP7b-23" value="Customer" style="shape=table;startSize=40;container=1;collapsible=1;childLayout=tableLayout;fixedRows=1;rowLines=0;fontStyle=1;align=center;resizeLast=1;shadow=1;" parent="1" vertex="1">
          <mxGeometry x="-280" y="80" width="280" height="200" as="geometry" />
        </mxCell>
        <mxCell id="C-vyLk0tnHw3VtMMgP7b-24" value="" style="shape=partialRectangle;collapsible=0;dropTarget=0;pointerEvents=0;fillColor=none;points=[[0,0.5],[1,0.5]];portConstraint=eastwest;top=0;left=0;right=0;bottom=1;" parent="C-vyLk0tnHw3VtMMgP7b-23" vertex="1">
          <mxGeometry y="40" width="280" height="40" as="geometry" />
        </mxCell>
        <mxCell id="C-vyLk0tnHw3VtMMgP7b-25" value="PK" style="shape=partialRectangle;overflow=hidden;connectable=0;fillColor=none;top=0;left=0;bottom=0;right=0;fontStyle=1;" parent="C-vyLk0tnHw3VtMMgP7b-24" vertex="1">
          <mxGeometry width="40" height="40" as="geometry">
            <mxRectangle width="40" height="40" as="alternateBounds" />
          </mxGeometry>
        </mxCell>
        <mxCell id="C-vyLk0tnHw3VtMMgP7b-26" value="customer_id varchar(45) NOT NULL " style="shape=partialRectangle;overflow=hidden;connectable=0;fillColor=none;top=0;left=0;bottom=0;right=0;align=left;spacingLeft=6;fontStyle=5;" parent="C-vyLk0tnHw3VtMMgP7b-24" vertex="1">
          <mxGeometry x="40" width="240" height="40" as="geometry">
            <mxRectangle width="240" height="40" as="alternateBounds" />
          </mxGeometry>
        </mxCell>
        <mxCell id="C-vyLk0tnHw3VtMMgP7b-27" value="" style="shape=partialRectangle;collapsible=0;dropTarget=0;pointerEvents=0;fillColor=none;points=[[0,0.5],[1,0.5]];portConstraint=eastwest;top=0;left=0;right=0;bottom=0;" parent="C-vyLk0tnHw3VtMMgP7b-23" vertex="1">
          <mxGeometry y="80" width="280" height="40" as="geometry" />
        </mxCell>
        <mxCell id="C-vyLk0tnHw3VtMMgP7b-28" value="" style="shape=partialRectangle;overflow=hidden;connectable=0;fillColor=none;top=0;left=0;bottom=0;right=0;" parent="C-vyLk0tnHw3VtMMgP7b-27" vertex="1">
          <mxGeometry width="40" height="40" as="geometry">
            <mxRectangle width="40" height="40" as="alternateBounds" />
          </mxGeometry>
        </mxCell>
        <mxCell id="C-vyLk0tnHw3VtMMgP7b-29" value="customer_name varchar(45) NOT NULL" style="shape=partialRectangle;overflow=hidden;connectable=0;fillColor=none;top=0;left=0;bottom=0;right=0;align=left;spacingLeft=6;" parent="C-vyLk0tnHw3VtMMgP7b-27" vertex="1">
          <mxGeometry x="40" width="240" height="40" as="geometry">
            <mxRectangle width="240" height="40" as="alternateBounds" />
          </mxGeometry>
        </mxCell>
        <mxCell id="EONay0zQ6uCYlo2TevSu-20" value="" style="shape=partialRectangle;collapsible=0;dropTarget=0;pointerEvents=0;fillColor=none;points=[[0,0.5],[1,0.5]];portConstraint=eastwest;top=0;left=0;right=0;bottom=0;" vertex="1" parent="C-vyLk0tnHw3VtMMgP7b-23">
          <mxGeometry y="120" width="280" height="40" as="geometry" />
        </mxCell>
        <mxCell id="EONay0zQ6uCYlo2TevSu-21" value="" style="shape=partialRectangle;overflow=hidden;connectable=0;fillColor=none;top=0;left=0;bottom=0;right=0;" vertex="1" parent="EONay0zQ6uCYlo2TevSu-20">
          <mxGeometry width="40" height="40" as="geometry">
            <mxRectangle width="40" height="40" as="alternateBounds" />
          </mxGeometry>
        </mxCell>
        <mxCell id="EONay0zQ6uCYlo2TevSu-22" value="customer_street varchar(45) NOT NULL" style="shape=partialRectangle;overflow=hidden;connectable=0;fillColor=none;top=0;left=0;bottom=0;right=0;align=left;spacingLeft=6;" vertex="1" parent="EONay0zQ6uCYlo2TevSu-20">
          <mxGeometry x="40" width="240" height="40" as="geometry">
            <mxRectangle width="240" height="40" as="alternateBounds" />
          </mxGeometry>
        </mxCell>
        <mxCell id="EONay0zQ6uCYlo2TevSu-23" value="" style="shape=partialRectangle;collapsible=0;dropTarget=0;pointerEvents=0;fillColor=none;points=[[0,0.5],[1,0.5]];portConstraint=eastwest;top=0;left=0;right=0;bottom=0;" vertex="1" parent="C-vyLk0tnHw3VtMMgP7b-23">
          <mxGeometry y="160" width="280" height="40" as="geometry" />
        </mxCell>
        <mxCell id="EONay0zQ6uCYlo2TevSu-24" value="" style="shape=partialRectangle;overflow=hidden;connectable=0;fillColor=none;top=0;left=0;bottom=0;right=0;" vertex="1" parent="EONay0zQ6uCYlo2TevSu-23">
          <mxGeometry width="40" height="40" as="geometry">
            <mxRectangle width="40" height="40" as="alternateBounds" />
          </mxGeometry>
        </mxCell>
        <mxCell id="EONay0zQ6uCYlo2TevSu-25" value="customer_city varchar(45) NOT NULL" style="shape=partialRectangle;overflow=hidden;connectable=0;fillColor=none;top=0;left=0;bottom=0;right=0;align=left;spacingLeft=6;" vertex="1" parent="EONay0zQ6uCYlo2TevSu-23">
          <mxGeometry x="40" width="240" height="40" as="geometry">
            <mxRectangle width="240" height="40" as="alternateBounds" />
          </mxGeometry>
        </mxCell>
        <mxCell id="EONay0zQ6uCYlo2TevSu-4" value="Loan" style="shape=table;startSize=40;container=1;collapsible=1;childLayout=tableLayout;fixedRows=1;rowLines=0;fontStyle=1;align=center;resizeLast=1;shadow=1;" vertex="1" parent="1">
          <mxGeometry x="80" y="80" width="280" height="120" as="geometry" />
        </mxCell>
        <mxCell id="EONay0zQ6uCYlo2TevSu-5" value="" style="shape=partialRectangle;collapsible=0;dropTarget=0;pointerEvents=0;fillColor=none;points=[[0,0.5],[1,0.5]];portConstraint=eastwest;top=0;left=0;right=0;bottom=1;" vertex="1" parent="EONay0zQ6uCYlo2TevSu-4">
          <mxGeometry y="40" width="280" height="40" as="geometry" />
        </mxCell>
        <mxCell id="EONay0zQ6uCYlo2TevSu-6" value="PK" style="shape=partialRectangle;overflow=hidden;connectable=0;fillColor=none;top=0;left=0;bottom=0;right=0;fontStyle=1;" vertex="1" parent="EONay0zQ6uCYlo2TevSu-5">
          <mxGeometry width="40" height="40" as="geometry">
            <mxRectangle width="40" height="40" as="alternateBounds" />
          </mxGeometry>
        </mxCell>
        <mxCell id="EONay0zQ6uCYlo2TevSu-7" value="loan_number varchar(45) NOT NULL" style="shape=partialRectangle;overflow=hidden;connectable=0;fillColor=none;top=0;left=0;bottom=0;right=0;align=left;spacingLeft=6;fontStyle=5;" vertex="1" parent="EONay0zQ6uCYlo2TevSu-5">
          <mxGeometry x="40" width="240" height="40" as="geometry">
            <mxRectangle width="240" height="40" as="alternateBounds" />
          </mxGeometry>
        </mxCell>
        <mxCell id="EONay0zQ6uCYlo2TevSu-8" value="" style="shape=partialRectangle;collapsible=0;dropTarget=0;pointerEvents=0;fillColor=none;points=[[0,0.5],[1,0.5]];portConstraint=eastwest;top=0;left=0;right=0;bottom=0;" vertex="1" parent="EONay0zQ6uCYlo2TevSu-4">
          <mxGeometry y="80" width="280" height="40" as="geometry" />
        </mxCell>
        <mxCell id="EONay0zQ6uCYlo2TevSu-9" value="" style="shape=partialRectangle;overflow=hidden;connectable=0;fillColor=none;top=0;left=0;bottom=0;right=0;" vertex="1" parent="EONay0zQ6uCYlo2TevSu-8">
          <mxGeometry width="40" height="40" as="geometry">
            <mxRectangle width="40" height="40" as="alternateBounds" />
          </mxGeometry>
        </mxCell>
        <mxCell id="EONay0zQ6uCYlo2TevSu-10" value="amout int NOT NULL" style="shape=partialRectangle;overflow=hidden;connectable=0;fillColor=none;top=0;left=0;bottom=0;right=0;align=left;spacingLeft=6;" vertex="1" parent="EONay0zQ6uCYlo2TevSu-8">
          <mxGeometry x="40" width="240" height="40" as="geometry">
            <mxRectangle width="240" height="40" as="alternateBounds" />
          </mxGeometry>
        </mxCell>
        <mxCell id="EONay0zQ6uCYlo2TevSu-13" value="Account" style="shape=table;startSize=40;container=1;collapsible=1;childLayout=tableLayout;fixedRows=1;rowLines=0;fontStyle=1;align=center;resizeLast=1;shadow=1;" vertex="1" parent="1">
          <mxGeometry x="440" y="80" width="360" height="120" as="geometry" />
        </mxCell>
        <mxCell id="EONay0zQ6uCYlo2TevSu-14" value="" style="shape=partialRectangle;collapsible=0;dropTarget=0;pointerEvents=0;fillColor=none;points=[[0,0.5],[1,0.5]];portConstraint=eastwest;top=0;left=0;right=0;bottom=1;" vertex="1" parent="EONay0zQ6uCYlo2TevSu-13">
          <mxGeometry y="40" width="360" height="40" as="geometry" />
        </mxCell>
        <mxCell id="EONay0zQ6uCYlo2TevSu-15" value="PK" style="shape=partialRectangle;overflow=hidden;connectable=0;fillColor=none;top=0;left=0;bottom=0;right=0;fontStyle=1;" vertex="1" parent="EONay0zQ6uCYlo2TevSu-14">
          <mxGeometry width="40" height="40" as="geometry">
            <mxRectangle width="40" height="40" as="alternateBounds" />
          </mxGeometry>
        </mxCell>
        <mxCell id="EONay0zQ6uCYlo2TevSu-16" value="account_number varchar(45) NOT NULL" style="shape=partialRectangle;overflow=hidden;connectable=0;fillColor=none;top=0;left=0;bottom=0;right=0;align=left;spacingLeft=6;fontStyle=5;" vertex="1" parent="EONay0zQ6uCYlo2TevSu-14">
          <mxGeometry x="40" width="320" height="40" as="geometry">
            <mxRectangle width="320" height="40" as="alternateBounds" />
          </mxGeometry>
        </mxCell>
        <mxCell id="EONay0zQ6uCYlo2TevSu-17" value="" style="shape=partialRectangle;collapsible=0;dropTarget=0;pointerEvents=0;fillColor=none;points=[[0,0.5],[1,0.5]];portConstraint=eastwest;top=0;left=0;right=0;bottom=0;" vertex="1" parent="EONay0zQ6uCYlo2TevSu-13">
          <mxGeometry y="80" width="360" height="40" as="geometry" />
        </mxCell>
        <mxCell id="EONay0zQ6uCYlo2TevSu-18" value="" style="shape=partialRectangle;overflow=hidden;connectable=0;fillColor=none;top=0;left=0;bottom=0;right=0;" vertex="1" parent="EONay0zQ6uCYlo2TevSu-17">
          <mxGeometry width="40" height="40" as="geometry">
            <mxRectangle width="40" height="40" as="alternateBounds" />
          </mxGeometry>
        </mxCell>
        <mxCell id="EONay0zQ6uCYlo2TevSu-19" value="balance int NOT NULL check(0&lt;=balance&lt;=150000)" style="shape=partialRectangle;overflow=hidden;connectable=0;fillColor=none;top=0;left=0;bottom=0;right=0;align=left;spacingLeft=6;" vertex="1" parent="EONay0zQ6uCYlo2TevSu-17">
          <mxGeometry x="40" width="320" height="40" as="geometry">
            <mxRectangle width="320" height="40" as="alternateBounds" />
          </mxGeometry>
        </mxCell>
        <mxCell id="EONay0zQ6uCYlo2TevSu-29" value="Branch" style="shape=table;startSize=40;container=1;collapsible=1;childLayout=tableLayout;fixedRows=1;rowLines=0;fontStyle=1;align=center;resizeLast=1;shadow=1;" vertex="1" parent="1">
          <mxGeometry x="-280" y="320" width="280" height="160" as="geometry" />
        </mxCell>
        <mxCell id="EONay0zQ6uCYlo2TevSu-30" value="" style="shape=partialRectangle;collapsible=0;dropTarget=0;pointerEvents=0;fillColor=none;points=[[0,0.5],[1,0.5]];portConstraint=eastwest;top=0;left=0;right=0;bottom=1;" vertex="1" parent="EONay0zQ6uCYlo2TevSu-29">
          <mxGeometry y="40" width="280" height="40" as="geometry" />
        </mxCell>
        <mxCell id="EONay0zQ6uCYlo2TevSu-31" value="PK" style="shape=partialRectangle;overflow=hidden;connectable=0;fillColor=none;top=0;left=0;bottom=0;right=0;fontStyle=1;" vertex="1" parent="EONay0zQ6uCYlo2TevSu-30">
          <mxGeometry width="40" height="40" as="geometry">
            <mxRectangle width="40" height="40" as="alternateBounds" />
          </mxGeometry>
        </mxCell>
        <mxCell id="EONay0zQ6uCYlo2TevSu-32" value="branch_name varchar(45) NOT NULL " style="shape=partialRectangle;overflow=hidden;connectable=0;fillColor=none;top=0;left=0;bottom=0;right=0;align=left;spacingLeft=6;fontStyle=5;" vertex="1" parent="EONay0zQ6uCYlo2TevSu-30">
          <mxGeometry x="40" width="240" height="40" as="geometry">
            <mxRectangle width="240" height="40" as="alternateBounds" />
          </mxGeometry>
        </mxCell>
        <mxCell id="EONay0zQ6uCYlo2TevSu-33" value="" style="shape=partialRectangle;collapsible=0;dropTarget=0;pointerEvents=0;fillColor=none;points=[[0,0.5],[1,0.5]];portConstraint=eastwest;top=0;left=0;right=0;bottom=0;" vertex="1" parent="EONay0zQ6uCYlo2TevSu-29">
          <mxGeometry y="80" width="280" height="40" as="geometry" />
        </mxCell>
        <mxCell id="EONay0zQ6uCYlo2TevSu-34" value="" style="shape=partialRectangle;overflow=hidden;connectable=0;fillColor=none;top=0;left=0;bottom=0;right=0;" vertex="1" parent="EONay0zQ6uCYlo2TevSu-33">
          <mxGeometry width="40" height="40" as="geometry">
            <mxRectangle width="40" height="40" as="alternateBounds" />
          </mxGeometry>
        </mxCell>
        <mxCell id="EONay0zQ6uCYlo2TevSu-35" value="assets int NOT NULL" style="shape=partialRectangle;overflow=hidden;connectable=0;fillColor=none;top=0;left=0;bottom=0;right=0;align=left;spacingLeft=6;" vertex="1" parent="EONay0zQ6uCYlo2TevSu-33">
          <mxGeometry x="40" width="240" height="40" as="geometry">
            <mxRectangle width="240" height="40" as="alternateBounds" />
          </mxGeometry>
        </mxCell>
        <mxCell id="EONay0zQ6uCYlo2TevSu-39" value="" style="shape=partialRectangle;collapsible=0;dropTarget=0;pointerEvents=0;fillColor=none;points=[[0,0.5],[1,0.5]];portConstraint=eastwest;top=0;left=0;right=0;bottom=0;" vertex="1" parent="EONay0zQ6uCYlo2TevSu-29">
          <mxGeometry y="120" width="280" height="40" as="geometry" />
        </mxCell>
        <mxCell id="EONay0zQ6uCYlo2TevSu-40" value="" style="shape=partialRectangle;overflow=hidden;connectable=0;fillColor=none;top=0;left=0;bottom=0;right=0;" vertex="1" parent="EONay0zQ6uCYlo2TevSu-39">
          <mxGeometry width="40" height="40" as="geometry">
            <mxRectangle width="40" height="40" as="alternateBounds" />
          </mxGeometry>
        </mxCell>
        <mxCell id="EONay0zQ6uCYlo2TevSu-41" value="branch_city varchar(45) NOT NULL" style="shape=partialRectangle;overflow=hidden;connectable=0;fillColor=none;top=0;left=0;bottom=0;right=0;align=left;spacingLeft=6;" vertex="1" parent="EONay0zQ6uCYlo2TevSu-39">
          <mxGeometry x="40" width="240" height="40" as="geometry">
            <mxRectangle width="240" height="40" as="alternateBounds" />
          </mxGeometry>
        </mxCell>
        <mxCell id="EONay0zQ6uCYlo2TevSu-66" value="Borrow" style="shape=table;startSize=40;container=1;collapsible=1;childLayout=tableLayout;fixedRows=1;rowLines=0;fontStyle=1;align=center;resizeLast=1;shadow=1;" vertex="1" parent="1">
          <mxGeometry x="80" y="320" width="280" height="200" as="geometry" />
        </mxCell>
        <mxCell id="EONay0zQ6uCYlo2TevSu-96" value="" style="shape=partialRectangle;collapsible=0;dropTarget=0;pointerEvents=0;fillColor=none;points=[[0,0.5],[1,0.5]];portConstraint=eastwest;top=0;left=0;right=0;bottom=0;" vertex="1" parent="EONay0zQ6uCYlo2TevSu-66">
          <mxGeometry y="40" width="280" height="40" as="geometry" />
        </mxCell>
        <mxCell id="EONay0zQ6uCYlo2TevSu-97" value="PK" style="shape=partialRectangle;overflow=hidden;connectable=0;fillColor=none;top=0;left=0;bottom=0;right=0;" vertex="1" parent="EONay0zQ6uCYlo2TevSu-96">
          <mxGeometry width="40" height="40" as="geometry">
            <mxRectangle width="40" height="40" as="alternateBounds" />
          </mxGeometry>
        </mxCell>
        <mxCell id="EONay0zQ6uCYlo2TevSu-98" value="customer_id varchar(45) NOT NULL" style="shape=partialRectangle;overflow=hidden;connectable=0;fillColor=none;top=0;left=0;bottom=0;right=0;align=left;spacingLeft=6;fontStyle=5" vertex="1" parent="EONay0zQ6uCYlo2TevSu-96">
          <mxGeometry x="40" width="240" height="40" as="geometry">
            <mxRectangle width="240" height="40" as="alternateBounds" />
          </mxGeometry>
        </mxCell>
        <mxCell id="fbyFvEqyyEfJHHm_t_4k-32" value="" style="shape=partialRectangle;collapsible=0;dropTarget=0;pointerEvents=0;fillColor=none;points=[[0,0.5],[1,0.5]];portConstraint=eastwest;top=0;left=0;right=0;bottom=1;" vertex="1" parent="EONay0zQ6uCYlo2TevSu-66">
          <mxGeometry y="80" width="280" height="40" as="geometry" />
        </mxCell>
        <mxCell id="fbyFvEqyyEfJHHm_t_4k-33" value="" style="shape=partialRectangle;overflow=hidden;connectable=0;fillColor=none;top=0;left=0;bottom=0;right=0;fontStyle=1;" vertex="1" parent="fbyFvEqyyEfJHHm_t_4k-32">
          <mxGeometry width="40" height="40" as="geometry">
            <mxRectangle width="40" height="40" as="alternateBounds" />
          </mxGeometry>
        </mxCell>
        <mxCell id="fbyFvEqyyEfJHHm_t_4k-34" value="loan_number varchar(45) NOT NULL" style="shape=partialRectangle;overflow=hidden;connectable=0;fillColor=none;top=0;left=0;bottom=0;right=0;align=left;spacingLeft=6;fontStyle=5;" vertex="1" parent="fbyFvEqyyEfJHHm_t_4k-32">
          <mxGeometry x="40" width="240" height="40" as="geometry">
            <mxRectangle width="240" height="40" as="alternateBounds" />
          </mxGeometry>
        </mxCell>
        <mxCell id="EONay0zQ6uCYlo2TevSu-70" value="" style="shape=partialRectangle;collapsible=0;dropTarget=0;pointerEvents=0;fillColor=none;points=[[0,0.5],[1,0.5]];portConstraint=eastwest;top=0;left=0;right=0;bottom=0;" vertex="1" parent="EONay0zQ6uCYlo2TevSu-66">
          <mxGeometry y="120" width="280" height="40" as="geometry" />
        </mxCell>
        <mxCell id="EONay0zQ6uCYlo2TevSu-71" value="FK" style="shape=partialRectangle;overflow=hidden;connectable=0;fillColor=none;top=0;left=0;bottom=0;right=0;" vertex="1" parent="EONay0zQ6uCYlo2TevSu-70">
          <mxGeometry width="40" height="40" as="geometry">
            <mxRectangle width="40" height="40" as="alternateBounds" />
          </mxGeometry>
        </mxCell>
        <mxCell id="EONay0zQ6uCYlo2TevSu-72" value="loan_number varchar(45) NOT NULL" style="shape=partialRectangle;overflow=hidden;connectable=0;fillColor=none;top=0;left=0;bottom=0;right=0;align=left;spacingLeft=6;" vertex="1" parent="EONay0zQ6uCYlo2TevSu-70">
          <mxGeometry x="40" width="240" height="40" as="geometry">
            <mxRectangle width="240" height="40" as="alternateBounds" />
          </mxGeometry>
        </mxCell>
        <mxCell id="EONay0zQ6uCYlo2TevSu-73" value="" style="shape=partialRectangle;collapsible=0;dropTarget=0;pointerEvents=0;fillColor=none;points=[[0,0.5],[1,0.5]];portConstraint=eastwest;top=0;left=0;right=0;bottom=0;" vertex="1" parent="EONay0zQ6uCYlo2TevSu-66">
          <mxGeometry y="160" width="280" height="40" as="geometry" />
        </mxCell>
        <mxCell id="EONay0zQ6uCYlo2TevSu-74" value="" style="shape=partialRectangle;overflow=hidden;connectable=0;fillColor=none;top=0;left=0;bottom=0;right=0;" vertex="1" parent="EONay0zQ6uCYlo2TevSu-73">
          <mxGeometry width="40" height="40" as="geometry">
            <mxRectangle width="40" height="40" as="alternateBounds" />
          </mxGeometry>
        </mxCell>
        <mxCell id="EONay0zQ6uCYlo2TevSu-75" value="customer_id varchar(45) NOT NULL" style="shape=partialRectangle;overflow=hidden;connectable=0;fillColor=none;top=0;left=0;bottom=0;right=0;align=left;spacingLeft=6;" vertex="1" parent="EONay0zQ6uCYlo2TevSu-73">
          <mxGeometry x="40" width="240" height="40" as="geometry">
            <mxRectangle width="240" height="40" as="alternateBounds" />
          </mxGeometry>
        </mxCell>
        <mxCell id="EONay0zQ6uCYlo2TevSu-81" style="edgeStyle=orthogonalEdgeStyle;rounded=0;orthogonalLoop=1;jettySize=auto;html=1;exitX=1;exitY=0.5;exitDx=0;exitDy=0;" edge="1" parent="1" source="EONay0zQ6uCYlo2TevSu-5" target="EONay0zQ6uCYlo2TevSu-70">
          <mxGeometry relative="1" as="geometry">
            <Array as="points">
              <mxPoint x="400" y="140" />
              <mxPoint x="400" y="460" />
            </Array>
          </mxGeometry>
        </mxCell>
        <mxCell id="EONay0zQ6uCYlo2TevSu-82" style="edgeStyle=orthogonalEdgeStyle;rounded=0;orthogonalLoop=1;jettySize=auto;html=1;exitX=1;exitY=0.5;exitDx=0;exitDy=0;" edge="1" parent="1" source="C-vyLk0tnHw3VtMMgP7b-24" target="EONay0zQ6uCYlo2TevSu-73">
          <mxGeometry relative="1" as="geometry" />
        </mxCell>
        <mxCell id="EONay0zQ6uCYlo2TevSu-83" value="Payment" style="shape=table;startSize=40;container=1;collapsible=1;childLayout=tableLayout;fixedRows=1;rowLines=0;fontStyle=1;align=center;resizeLast=1;shadow=1;" vertex="1" parent="1">
          <mxGeometry x="440" y="320" width="320" height="240" as="geometry" />
        </mxCell>
        <mxCell id="fbyFvEqyyEfJHHm_t_4k-11" value="" style="shape=partialRectangle;collapsible=0;dropTarget=0;pointerEvents=0;fillColor=none;points=[[0,0.5],[1,0.5]];portConstraint=eastwest;top=0;left=0;right=0;bottom=0;" vertex="1" parent="EONay0zQ6uCYlo2TevSu-83">
          <mxGeometry y="40" width="320" height="40" as="geometry" />
        </mxCell>
        <mxCell id="fbyFvEqyyEfJHHm_t_4k-12" value="PK" style="shape=partialRectangle;overflow=hidden;connectable=0;fillColor=none;top=0;left=0;bottom=0;right=0;" vertex="1" parent="fbyFvEqyyEfJHHm_t_4k-11">
          <mxGeometry width="40" height="40" as="geometry">
            <mxRectangle width="40" height="40" as="alternateBounds" />
          </mxGeometry>
        </mxCell>
        <mxCell id="fbyFvEqyyEfJHHm_t_4k-13" value="loan_number varchar(45) NOT NULL" style="shape=partialRectangle;overflow=hidden;connectable=0;fillColor=none;top=0;left=0;bottom=0;right=0;align=left;spacingLeft=6;fontStyle=5" vertex="1" parent="fbyFvEqyyEfJHHm_t_4k-11">
          <mxGeometry x="40" width="280" height="40" as="geometry">
            <mxRectangle width="280" height="40" as="alternateBounds" />
          </mxGeometry>
        </mxCell>
        <mxCell id="EONay0zQ6uCYlo2TevSu-84" value="" style="shape=partialRectangle;collapsible=0;dropTarget=0;pointerEvents=0;fillColor=none;points=[[0,0.5],[1,0.5]];portConstraint=eastwest;top=0;left=0;right=0;bottom=1;" vertex="1" parent="EONay0zQ6uCYlo2TevSu-83">
          <mxGeometry y="80" width="320" height="40" as="geometry" />
        </mxCell>
        <mxCell id="EONay0zQ6uCYlo2TevSu-85" value="" style="shape=partialRectangle;overflow=hidden;connectable=0;fillColor=none;top=0;left=0;bottom=0;right=0;fontStyle=1;" vertex="1" parent="EONay0zQ6uCYlo2TevSu-84">
          <mxGeometry width="40" height="40" as="geometry">
            <mxRectangle width="40" height="40" as="alternateBounds" />
          </mxGeometry>
        </mxCell>
        <mxCell id="EONay0zQ6uCYlo2TevSu-86" value="payment_number varchar(45) NOT NULL " style="shape=partialRectangle;overflow=hidden;connectable=0;fillColor=none;top=0;left=0;bottom=0;right=0;align=left;spacingLeft=6;fontStyle=5;" vertex="1" parent="EONay0zQ6uCYlo2TevSu-84">
          <mxGeometry x="40" width="280" height="40" as="geometry">
            <mxRectangle width="280" height="40" as="alternateBounds" />
          </mxGeometry>
        </mxCell>
        <mxCell id="EONay0zQ6uCYlo2TevSu-111" value="" style="shape=partialRectangle;collapsible=0;dropTarget=0;pointerEvents=0;fillColor=none;points=[[0,0.5],[1,0.5]];portConstraint=eastwest;top=0;left=0;right=0;bottom=1;" vertex="1" parent="EONay0zQ6uCYlo2TevSu-83">
          <mxGeometry y="120" width="320" height="40" as="geometry" />
        </mxCell>
        <mxCell id="EONay0zQ6uCYlo2TevSu-112" value="FK" style="shape=partialRectangle;overflow=hidden;connectable=0;fillColor=none;top=0;left=0;bottom=0;right=0;fontStyle=1;" vertex="1" parent="EONay0zQ6uCYlo2TevSu-111">
          <mxGeometry width="40" height="40" as="geometry">
            <mxRectangle width="40" height="40" as="alternateBounds" />
          </mxGeometry>
        </mxCell>
        <mxCell id="EONay0zQ6uCYlo2TevSu-113" value="loan_number varchar(45) NOT NULL" style="shape=partialRectangle;overflow=hidden;connectable=0;fillColor=none;top=0;left=0;bottom=0;right=0;align=left;spacingLeft=6;fontStyle=0;" vertex="1" parent="EONay0zQ6uCYlo2TevSu-111">
          <mxGeometry x="40" width="280" height="40" as="geometry">
            <mxRectangle width="280" height="40" as="alternateBounds" />
          </mxGeometry>
        </mxCell>
        <mxCell id="EONay0zQ6uCYlo2TevSu-90" value="" style="shape=partialRectangle;collapsible=0;dropTarget=0;pointerEvents=0;fillColor=none;points=[[0,0.5],[1,0.5]];portConstraint=eastwest;top=0;left=0;right=0;bottom=0;" vertex="1" parent="EONay0zQ6uCYlo2TevSu-83">
          <mxGeometry y="160" width="320" height="40" as="geometry" />
        </mxCell>
        <mxCell id="EONay0zQ6uCYlo2TevSu-91" value="" style="shape=partialRectangle;overflow=hidden;connectable=0;fillColor=none;top=0;left=0;bottom=0;right=0;" vertex="1" parent="EONay0zQ6uCYlo2TevSu-90">
          <mxGeometry width="40" height="40" as="geometry">
            <mxRectangle width="40" height="40" as="alternateBounds" />
          </mxGeometry>
        </mxCell>
        <mxCell id="EONay0zQ6uCYlo2TevSu-92" value="payment_amount int NOT NULL" style="shape=partialRectangle;overflow=hidden;connectable=0;fillColor=none;top=0;left=0;bottom=0;right=0;align=left;spacingLeft=6;" vertex="1" parent="EONay0zQ6uCYlo2TevSu-90">
          <mxGeometry x="40" width="280" height="40" as="geometry">
            <mxRectangle width="280" height="40" as="alternateBounds" />
          </mxGeometry>
        </mxCell>
        <mxCell id="EONay0zQ6uCYlo2TevSu-93" value="" style="shape=partialRectangle;collapsible=0;dropTarget=0;pointerEvents=0;fillColor=none;points=[[0,0.5],[1,0.5]];portConstraint=eastwest;top=0;left=0;right=0;bottom=0;" vertex="1" parent="EONay0zQ6uCYlo2TevSu-83">
          <mxGeometry y="200" width="320" height="40" as="geometry" />
        </mxCell>
        <mxCell id="EONay0zQ6uCYlo2TevSu-94" value="" style="shape=partialRectangle;overflow=hidden;connectable=0;fillColor=none;top=0;left=0;bottom=0;right=0;" vertex="1" parent="EONay0zQ6uCYlo2TevSu-93">
          <mxGeometry width="40" height="40" as="geometry">
            <mxRectangle width="40" height="40" as="alternateBounds" />
          </mxGeometry>
        </mxCell>
        <mxCell id="EONay0zQ6uCYlo2TevSu-95" value="payment_date date NOT NULL" style="shape=partialRectangle;overflow=hidden;connectable=0;fillColor=none;top=0;left=0;bottom=0;right=0;align=left;spacingLeft=6;" vertex="1" parent="EONay0zQ6uCYlo2TevSu-93">
          <mxGeometry x="40" width="280" height="40" as="geometry">
            <mxRectangle width="280" height="40" as="alternateBounds" />
          </mxGeometry>
        </mxCell>
        <mxCell id="fbyFvEqyyEfJHHm_t_4k-1" style="edgeStyle=orthogonalEdgeStyle;rounded=0;orthogonalLoop=1;jettySize=auto;html=1;exitX=1;exitY=0.5;exitDx=0;exitDy=0;" edge="1" parent="1" source="EONay0zQ6uCYlo2TevSu-5" target="EONay0zQ6uCYlo2TevSu-111">
          <mxGeometry relative="1" as="geometry" />
        </mxCell>
        <mxCell id="fbyFvEqyyEfJHHm_t_4k-35" style="edgeStyle=orthogonalEdgeStyle;rounded=0;orthogonalLoop=1;jettySize=auto;html=1;exitX=1;exitY=0.5;exitDx=0;exitDy=0;" edge="1" parent="1" source="EONay0zQ6uCYlo2TevSu-5" target="fbyFvEqyyEfJHHm_t_4k-32">
          <mxGeometry relative="1" as="geometry">
            <Array as="points">
              <mxPoint x="400" y="140" />
              <mxPoint x="400" y="420" />
            </Array>
          </mxGeometry>
        </mxCell>
        <mxCell id="fbyFvEqyyEfJHHm_t_4k-37" style="edgeStyle=orthogonalEdgeStyle;rounded=0;orthogonalLoop=1;jettySize=auto;html=1;exitX=1;exitY=0.5;exitDx=0;exitDy=0;" edge="1" parent="1" source="C-vyLk0tnHw3VtMMgP7b-24" target="EONay0zQ6uCYlo2TevSu-96">
          <mxGeometry relative="1" as="geometry" />
        </mxCell>
      </root>
    </mxGraphModel>
  </diagram>
</mxfile>
